#!OML:ASF H:\Male1\Project 1\Capture day 1\Session 1\Male1.ASF
:FULLY-SPECIFIED
:DEGREES
535
root 19.9882 15.2736 -3.13622 212.765 87.99 -145.426
lowerback 4.18019 1.50805 -0.041067
upperback 2.93373 2.0614 0.292416
thorax 0.65577 1.05132 0.250236
lowerneck -5.63025 4.2603 9.37526
upperneck 0.246838 5.24019 -7.23573
head 1.58102 2.53832 -3.891
rclavicle -3.18055e-015 5.1684e-015
rhumerus -36.7731 5.38561 -89.3963
rradius 33.4371
rwrist -19.9143
rhand -18.7623 0.52901
rfingers 7.12502
rthumb 7.53464 -29.3168
lclavicle -3.18055e-015 5.1684e-015
lhumerus -30.591 18.8739 77.2746
lradius 25.9256
lwrist -7.79209
lhand -17.4059 12.5917
lfingers 7.12502
lthumb 8.84368 42.3864
rfemur -9.00879 17.9911 25.5161
rtibia 30.124
rfoot -28.0472 -26.9083
rtoes -32.7793
lfemur -9.35168 -19.637 -23.4999
ltibia 32.4208
lfoot -25.3051 23.9869
ltoes -5.95673
536
root 19.9869 15.2738 -3.13693 216.918 88.1833 -141.269
lowerback 4.14597 1.56267 -0.190594
upperback 2.89766 2.12816 0.229617
thorax 0.634521 1.0826 0.267507
lowerneck -5.54497 4.27909 9.37949
upperneck 0.179085 5.26645 -7.11483
head 1.54072 2.55396 -3.84913
rclavicle 2.33448e-014 4.87022e-015
rhumerus -36.6413 4.84155 -89.5112
rradius 33.0192
rwrist -19.5301
rhand -18.5668 0.638478
rfingers 7.12502
rthumb 7.72326 -29.2005
lclavicle 2.33448e-014 4.87022e-015
lhumerus -30.4966 19.9379 76.5292
lradius 24.8564
lwrist -8.68359
lhand -18.1304 12.9233
lfingers 7.12502
lthumb 8.14444 42.7463
rfemur -9.06504 18.108 25.5239
rtibia 30.1793
rfoot -27.9508 -26.9471
rtoes -33.2487
lfemur -9.26992 -19.7359 -23.5355
ltibia 32.3485
lfoot -25.3862 24.2466
ltoes -5.46997
537
root 19.9864 15.2736 -3.13805 219.774 88.3749 -138.395
lowerback 4.11921 1.60522 -0.374289
upperback 2.8682 2.17814 0.14642
thorax 0.615405 1.10537 0.28349
lowerneck -5.49271 4.29989 9.37739
upperneck 0.175195 5.29467 -6.9886
head 1.5273 2.57037 -3.80352
rclavicle -1.5294e-014 4.96962e-015
rhumerus -36.51 4.30046 -89.6352
rradius 32.6199
rwrist -19.1449
rhand -18.3563 0.815775
rfingers 7.12502
rthumb 7.92645 -29.0156
lclavicle -1.5294e-014 4.96962e-015
lhumerus -30.4242 20.8559 75.8515
lradius 23.881
lwrist -9.78608
lhand -18.7161 13.2014
lfingers 7.12502
lthumb 7.57916 43.0456
rfemur -9.11507 18.1779 25.4743
rtibia 30.2637
rfoot -27.8249 -26.9899
rtoes -33.8179
lfemur -9.17275 -19.7794 -23.6254
ltibia 32.2648
lfoot -25.4369 24.449
ltoes -5.52361
538
root 19.9868 15.2729 -3.13992 222.068 88.5452 -136.071
lowerback 4.08897 1.63083 -0.549387
upperback 2.85287 2.20644 0.0573761
thorax 0.613353 1.11766 0.289854
lowerneck -5.4623 4.32409 9.39901
upperneck 0.20803 5.32637 -6.90956
head 1.53307 2.5878 -3.77874
rclavicle 7.10655e-015 -2.98177e-015
rhumerus -36.3912 3.77758 -89.7636
rradius 32.2904
rwrist -18.7382
rhand -18.1168 1.01328
rfingers 7.12502
rthumb 8.15757 -28.8093
lclavicle 7.10655e-015 -2.98177e-015
lhumerus -30.3756 21.6062 75.2665
lradius 23.0428
lwrist -10.964
lhand -19.1305 13.4163
lfingers 7.12502
lthumb 7.17921 43.2746
rfemur -9.14745 18.201 25.41
rtibia 30.3572
rfoot -27.6614 -27.0064
rtoes -34.393
lfemur -9.061 -19.8049 -23.7347
ltibia 32.1839
lfoot -25.4852 24.6045
ltoes -5.84551
539
root 19.9884 15.2717 -3.14234 225.222 88.6787 -132.871
lowerback 4.05177 1.63798 -0.686482
upperback 2.85142 2.21198 -0.0213666
thorax 0.63061 1.1191 0.286847
lowerneck -5.42811 4.35672 9.45993
upperneck 0.250903 5.36946 -6.90424
head 1.54696 2.61016 -3.78727
rclavicle -1.68967e-015 -7.95139e-016
rhumerus -36.2911 3.31226 -89.9048
rradius 32.0413
rwrist -18.3218
rhand -17.8444 1.21896
rfingers 7.12502
rthumb 8.42053 -28.5932
lclavicle -1.68967e-015 -7.95139e-016
lhumerus -30.3619 22.1608 74.7901
lradius 22.377
lwrist -12.0593
lhand -19.3716 13.5473
lfingers 7.12502
lthumb 6.94649 43.4133
rfemur -9.14789 18.1969 25.3777
rtibia 30.4304
rfoot -27.4621 -26.9827
rtoes -34.8884
lfemur -8.94059 -19.8319 -23.8231
ltibia 32.1278
lfoot -25.558 24.7241
ltoes -6.10978
540
root 19.9913 15.2699 -3.14473 230.594 88.7597 -127.441
lowerback 4.01121 1.63342 -0.768706
upperback 2.86087 2.20406 -0.0775583
thorax 0.662199 1.1144 0.277061
lowerneck -5.38522 4.40052 9.54818
upperneck 0.292928 5.42828 -6.95993
head 1.564 2.63977 -3.82217
rclavicle -1.34925e-014 9.93923e-016
rhumerus -36.2152 2.92269 -90.0602
rradius 31.8752
rwrist -17.9257
rhand -17.5583 1.43155
rfingers 7.12502
rthumb 8.69665 -28.3693
lclavicle -1.34925e-014 9.93923e-016
lhumerus -30.3813 22.4759 74.4492
lradius 21.9086
lwrist -12.9243
lhand -19.4541 13.5876
lfingers 7.12502
lthumb 6.86678 43.4562
rfemur -9.10728 18.1929 25.4124
rtibia 30.4599
rfoot -27.2579 -26.9148
rtoes -35.2118
lfemur -8.82076 -19.8616 -23.8573
ltibia 32.1124
lfoot -25.6615 24.8147
ltoes -6.08826
541
root 19.9952 15.2679 -3.14659 238.437 88.7748 -119.536
lowerback 3.97795 1.62959 -0.789823
upperback 2.87121 2.19894 -0.108507
thorax 0.691855 1.11173 0.258648
lowerneck -5.35247 4.44709 9.63247
upperneck 0.344253 5.49116 -7.03608
head 1.58716 2.67106 -3.86323
rclavicle 1.11816e-015 -1.78906e-015
rhumerus -36.1726 2.61554 -90.2268
rradius 31.7895
rwrist -17.5745
rhand -17.2832 1.64428
rfingers 7.12502
rthumb 8.96204 -28.1454
lclavicle 1.11816e-015 -1.78906e-015
lhumerus -30.4207 22.5154 74.2708
lradius 21.6416
lwrist -13.4626
lhand -19.4158 13.5671
lfingers 7.12502
lthumb 6.90382 43.4345
rfemur -9.03198 18.2018 25.5233
rtibia 30.4409
rfoot -27.0857 -26.812
rtoes -35.3559
lfemur -8.70895 -19.8956 -23.823
ltibia 32.1371
lfoot -25.813 24.8741
ltoes -5.60992
